<svg width="25" height="24" viewBox="0 0 25 24" fill="none" xmlns="http://www.w3.org/2000/svg">
<path fill-rule="evenodd" clip-rule="evenodd" d="M11.9983 2.44253C12.2835 2.18582 12.7165 2.18582 13.0017 2.44253L23.0017 11.4425C23.3096 11.7196 23.3346 12.1938 23.0575 12.5017C22.7804 12.8096 22.3062 12.8346 21.9983 12.5575L20.25 10.984V18C20.25 19.5188 19.0188 20.75 17.5 20.75H7.50001C5.98122 20.75 4.75001 19.5188 4.75001 18V10.984L3.00173 12.5575C2.69385 12.8346 2.21963 12.8096 1.94254 12.5017C1.66544 12.1938 1.6904 11.7196 1.99828 11.4425L11.9983 2.44253ZM6.25001 9.63402V18C6.25001 18.6904 6.80965 19.25 7.50001 19.25H17.5C18.1904 19.25 18.75 18.6904 18.75 18V9.63402L12.5 4.00902L6.25001 9.63402Z" fill="url(#paint0_linear_1351_51212)"/>
<path fill-rule="evenodd" clip-rule="evenodd" d="M12.5 15.5C12.7761 15.5 13 15.7239 13 16V18C13 18.2761 12.7761 18.5 12.5 18.5C12.2239 18.5 12 18.2761 12 18V16C12 15.7239 12.2239 15.5 12.5 15.5Z" fill="url(#paint1_linear_1351_51212)"/>
<defs>
<linearGradient id="paint0_linear_1351_51212" x1="1.75" y1="19.6789" x2="22.1333" y2="4.27739" gradientUnits="userSpaceOnUse">
<stop stop-color="#63C891"/>
<stop offset="0.154198" stop-color="#56C9D8"/>
<stop offset="0.286458" stop-color="#7587BD"/>
<stop offset="0.416667" stop-color="#8E54A9"/>
<stop offset="0.526042" stop-color="#B94296"/>
<stop offset="0.69179" stop-color="#E62F83"/>
<stop offset="0.863806" stop-color="#ED7052"/>
<stop offset="1" stop-color="#F6C115"/>
</linearGradient>
<linearGradient id="paint1_linear_1351_51212" x1="1.75" y1="19.6789" x2="22.1333" y2="4.27739" gradientUnits="userSpaceOnUse">
<stop stop-color="#63C891"/>
<stop offset="0.154198" stop-color="#56C9D8"/>
<stop offset="0.286458" stop-color="#7587BD"/>
<stop offset="0.416667" stop-color="#8E54A9"/>
<stop offset="0.526042" stop-color="#B94296"/>
<stop offset="0.69179" stop-color="#E62F83"/>
<stop offset="0.863806" stop-color="#ED7052"/>
<stop offset="1" stop-color="#F6C115"/>
</linearGradient>
</defs>
</svg>
