<svg width="25" height="24" viewBox="0 0 25 24" fill="none" xmlns="http://www.w3.org/2000/svg">
<path d="M21.6001 8L15.6001 12L21.6001 16V8Z" stroke="url(#paint0_linear_1763_32545)" stroke-width="1.5" stroke-linecap="round" stroke-linejoin="round"/>
<path d="M14.0001 6H5.2001C4.31644 6 3.6001 6.76751 3.6001 7.71429V16.2857C3.6001 17.2325 4.31644 18 5.2001 18H14.0001C14.8838 18 15.6001 17.2325 15.6001 16.2857V7.71429C15.6001 6.76751 14.8838 6 14.0001 6Z" stroke="url(#paint1_linear_1763_32545)" stroke-width="1.5" stroke-linecap="round" stroke-linejoin="round"/>
<path d="M11.4808 12.2333C11.6399 12.1223 11.6399 11.8777 11.4808 11.7667L9.01664 10.0476C8.83859 9.92334 8.6001 10.0569 8.6001 10.2809V13.7191C8.6001 13.9431 8.83859 14.0767 9.01664 13.9524L11.4808 12.2333Z" stroke="url(#paint2_linear_1763_32545)" stroke-width="1.5" stroke-linecap="round" stroke-linejoin="round"/>
<defs>
<linearGradient id="paint0_linear_1763_32545" x1="3.6001" y1="17.3053" x2="17.34" y2="3.90547" gradientUnits="userSpaceOnUse">
<stop stop-color="#63C891"/>
<stop offset="0.154198" stop-color="#56C9D8"/>
<stop offset="0.286458" stop-color="#7587BD"/>
<stop offset="0.416667" stop-color="#8E54A9"/>
<stop offset="0.526042" stop-color="#B94296"/>
<stop offset="0.69179" stop-color="#E62F83"/>
<stop offset="0.863806" stop-color="#ED7052"/>
<stop offset="1" stop-color="#F6C115"/>
</linearGradient>
<linearGradient id="paint1_linear_1763_32545" x1="3.6001" y1="17.3053" x2="17.34" y2="3.90547" gradientUnits="userSpaceOnUse">
<stop stop-color="#63C891"/>
<stop offset="0.154198" stop-color="#56C9D8"/>
<stop offset="0.286458" stop-color="#7587BD"/>
<stop offset="0.416667" stop-color="#8E54A9"/>
<stop offset="0.526042" stop-color="#B94296"/>
<stop offset="0.69179" stop-color="#E62F83"/>
<stop offset="0.863806" stop-color="#ED7052"/>
<stop offset="1" stop-color="#F6C115"/>
</linearGradient>
<linearGradient id="paint2_linear_1763_32545" x1="3.6001" y1="17.3053" x2="17.34" y2="3.90547" gradientUnits="userSpaceOnUse">
<stop stop-color="#63C891"/>
<stop offset="0.154198" stop-color="#56C9D8"/>
<stop offset="0.286458" stop-color="#7587BD"/>
<stop offset="0.416667" stop-color="#8E54A9"/>
<stop offset="0.526042" stop-color="#B94296"/>
<stop offset="0.69179" stop-color="#E62F83"/>
<stop offset="0.863806" stop-color="#ED7052"/>
<stop offset="1" stop-color="#F6C115"/>
</linearGradient>
</defs>
</svg>
