<svg width="25" height="24" viewBox="0 0 25 24" fill="none" xmlns="http://www.w3.org/2000/svg">
<path d="M14.6001 15C14.6001 14.4477 15.0478 14 15.6001 14H19.6001C20.1524 14 20.6001 14.4477 20.6001 15V19C20.6001 19.5523 20.1524 20 19.6001 20H15.6001C15.0478 20 14.6001 19.5523 14.6001 19V15Z" stroke="url(#paint0_linear_1351_51371)" stroke-width="1.5" stroke-linecap="round" stroke-linejoin="round"/>
<path d="M4.6001 5C4.6001 4.44772 5.04781 4 5.6001 4H9.6001C10.1524 4 10.6001 4.44772 10.6001 5V9C10.6001 9.55228 10.1524 10 9.6001 10H5.6001C5.04781 10 4.6001 9.55228 4.6001 9V5Z" stroke="url(#paint1_linear_1351_51371)" stroke-width="1.5" stroke-linecap="round" stroke-linejoin="round"/>
<path d="M14.6001 5C14.6001 4.44772 15.0478 4 15.6001 4H19.6001C20.1524 4 20.6001 4.44772 20.6001 5V9C20.6001 9.55228 20.1524 10 19.6001 10H15.6001C15.0478 10 14.6001 9.55228 14.6001 9V5Z" stroke="url(#paint2_linear_1351_51371)" stroke-width="1.5" stroke-linecap="round" stroke-linejoin="round"/>
<path d="M4.6001 15C4.6001 14.4477 5.04781 14 5.6001 14H9.6001C10.1524 14 10.6001 14.4477 10.6001 15V19C10.6001 19.5523 10.1524 20 9.6001 20H5.6001C5.04781 20 4.6001 19.5523 4.6001 19V15Z" stroke="url(#paint3_linear_1351_51371)" stroke-width="1.5" stroke-linecap="round" stroke-linejoin="round"/>
<defs>
<linearGradient id="paint0_linear_1351_51371" x1="4.6001" y1="19.0737" x2="21.3493" y2="8.18395" gradientUnits="userSpaceOnUse">
<stop stop-color="#63C891"/>
<stop offset="0.154198" stop-color="#56C9D8"/>
<stop offset="0.286458" stop-color="#7587BD"/>
<stop offset="0.416667" stop-color="#8E54A9"/>
<stop offset="0.526042" stop-color="#B94296"/>
<stop offset="0.69179" stop-color="#E62F83"/>
<stop offset="0.863806" stop-color="#ED7052"/>
<stop offset="1" stop-color="#F6C115"/>
</linearGradient>
<linearGradient id="paint1_linear_1351_51371" x1="4.6001" y1="19.0737" x2="21.3493" y2="8.18395" gradientUnits="userSpaceOnUse">
<stop stop-color="#63C891"/>
<stop offset="0.154198" stop-color="#56C9D8"/>
<stop offset="0.286458" stop-color="#7587BD"/>
<stop offset="0.416667" stop-color="#8E54A9"/>
<stop offset="0.526042" stop-color="#B94296"/>
<stop offset="0.69179" stop-color="#E62F83"/>
<stop offset="0.863806" stop-color="#ED7052"/>
<stop offset="1" stop-color="#F6C115"/>
</linearGradient>
<linearGradient id="paint2_linear_1351_51371" x1="4.6001" y1="19.0737" x2="21.3493" y2="8.18395" gradientUnits="userSpaceOnUse">
<stop stop-color="#63C891"/>
<stop offset="0.154198" stop-color="#56C9D8"/>
<stop offset="0.286458" stop-color="#7587BD"/>
<stop offset="0.416667" stop-color="#8E54A9"/>
<stop offset="0.526042" stop-color="#B94296"/>
<stop offset="0.69179" stop-color="#E62F83"/>
<stop offset="0.863806" stop-color="#ED7052"/>
<stop offset="1" stop-color="#F6C115"/>
</linearGradient>
<linearGradient id="paint3_linear_1351_51371" x1="4.6001" y1="19.0737" x2="21.3493" y2="8.18395" gradientUnits="userSpaceOnUse">
<stop stop-color="#63C891"/>
<stop offset="0.154198" stop-color="#56C9D8"/>
<stop offset="0.286458" stop-color="#7587BD"/>
<stop offset="0.416667" stop-color="#8E54A9"/>
<stop offset="0.526042" stop-color="#B94296"/>
<stop offset="0.69179" stop-color="#E62F83"/>
<stop offset="0.863806" stop-color="#ED7052"/>
<stop offset="1" stop-color="#F6C115"/>
</linearGradient>
</defs>
</svg>
