<?xml version="1.0" encoding="utf-8"?>
<!-- Generator: Adobe Illustrator 24.0.2, SVG Export Plug-In . SVG Version: 6.00 Build 0)  -->
<svg version="1.1" id="Capa_1" xmlns="http://www.w3.org/2000/svg" xmlns:xlink="http://www.w3.org/1999/xlink" x="0px" y="0px"
	 viewBox="0 0 488.9 488.9" style="enable-background:new 0 0 488.9 488.9;" xml:space="preserve">
<path d="M469.9,223.1c-8.1-3.8-17.8-0.4-21.6,7.7c-21,44.4-89.6,66.9-203.8,66.9c-114.2,0-182.8-22.5-203.8-66.9
	c-3.8-8.1-13.5-11.6-21.6-7.7c-8.1,3.8-11.6,13.5-7.7,21.6c12.6,26.5,36.3,47.1,70.6,61.2l-21,42.2c-4,8-0.7,17.8,7.3,21.8
	c2.3,1.2,4.8,1.7,7.2,1.7c6,0,11.7-3.3,14.6-9l23.1-46.4c31.4,8.3,70,12.9,115.1,13.7v58.6c0,9,7.3,16.2,16.2,16.2
	s16.2-7.3,16.2-16.2v-58.6c45.1-0.9,83.7-5.5,115.1-13.7l23.1,46.4c2.8,5.7,8.6,9,14.6,9c2.4,0,4.9-0.5,7.2-1.7
	c8-4,11.3-13.8,7.3-21.8L407,306c34.4-14.2,58.1-34.7,70.6-61.2C481.4,236.6,478,227,469.9,223.1z"/>
</svg>
