<?xml version="1.0" encoding="utf-8"?>
<!-- Generator: Adobe Illustrator 24.0.2, SVG Export Plug-In . SVG Version: 6.00 Build 0)  -->
<svg version="1.1" id="Capa_1" xmlns="http://www.w3.org/2000/svg" xmlns:xlink="http://www.w3.org/1999/xlink" x="0px" y="0px"
	 viewBox="0 0 488.9 488.9" style="enable-background:new 0 0 488.9 488.9;" xml:space="preserve">
<g>
	<g>
		<path d="M244.4,128.7c78.2,0,153.1,41,211.6,115.7c-58.6,74.7-133.5,115.7-211.6,115.7c-78.2,0-153.1-41-211.6-115.7
			C91.4,169.7,166.3,128.7,244.4,128.7 M146.2,238.1c-1.8,27.4,7.5,53.6,26.3,73.6c18.6,19.8,44.8,31.2,72,31.2
			c2.1,0,4.2-0.1,6.3-0.2c49.3-3,88.9-42.6,92.1-92c1.8-27.5-7.5-53.6-26.3-73.7c-18.6-19.8-44.8-31.2-72-31.2c0,0,0,0,0,0
			c-2.1,0-4.2,0.1-6.3,0.2l0,0l0,0C188.8,149.3,149.2,188.8,146.2,238.1 M244.4,98.7C151,98.7,66.3,149.8,3.8,232.8
			c-5.1,6.8-5.1,16.3,0,23.1C66.3,339,151,390.1,244.4,390.1S422.5,339,485,256c5.1-6.8,5.1-16.3,0-23.1
			C422.5,149.8,337.8,98.7,244.4,98.7L244.4,98.7z M244.4,312.9c-39.3,0-71-33.1-68.3-72.9c2.1-34.2,29.8-61.8,64-64
			c1.5-0.1,3-0.1,4.4-0.1c39.3,0,71,33.1,68.3,72.9c-2.2,34.3-29.9,61.9-64,64C247.4,312.8,245.9,312.9,244.4,312.9L244.4,312.9z"/>
	</g>
</g>
</svg>
